HIERARCHY
ROOT Hips
{
	OFFSET 0.000000 0.000000 0.000000
	CHANNELS 6 Xposition Yposition Zposition Zrotation Yrotation Xrotation 
	JOINT LHipJoint
	{
		OFFSET 0.000000 0.000000 0.000000
		CHANNELS 3 Zrotation Yrotation Xrotation
		JOINT LeftUpLeg
		{
			OFFSET 1.363060 -1.794630 0.839290
			CHANNELS 3 Zrotation Yrotation Xrotation
			JOINT LeftLeg
			{
				OFFSET 2.448110 -6.726130 0.000000
				CHANNELS 3 Zrotation Yrotation Xrotation
				JOINT LeftFoot
				{
					OFFSET 2.562200 -7.039590 0.000000
					CHANNELS 3 Zrotation Yrotation Xrotation
					JOINT LeftToeBase
					{
						OFFSET 0.157640 -0.433110 2.322550
						CHANNELS 3 Zrotation Yrotation Xrotation
						End Site
						{
							OFFSET 0.000000 0.000000 0.000000
						}
					}
				}
			}
		}
	}
	JOINT RHipJoint
	{
		OFFSET 0.000000 0.000000 0.000000
		CHANNELS 3 Zrotation Yrotation Xrotation
		JOINT RightUpLeg
		{
			OFFSET -1.305520 -1.794630 0.839290
			CHANNELS 3 Zrotation Yrotation Xrotation
			JOINT RightLeg
			{
				OFFSET -2.542530 -6.985550 0.000000
				CHANNELS 3 Zrotation Yrotation Xrotation
				JOINT RightFoot
				{
					OFFSET -2.568260 -7.056230 0.000000
					CHANNELS 3 Zrotation Yrotation Xrotation
					JOINT RightToeBase
					{
						OFFSET -0.164730 -0.452590 2.363150
						CHANNELS 3 Zrotation Yrotation Xrotation
						End Site
						{
							OFFSET 0.000000 0.000000 0.000000
						}
					}
				}
			}
		}
	}
	JOINT LowerBack
	{
		OFFSET 0.000000 0.000000 0.000000
		CHANNELS 3 Zrotation Yrotation Xrotation
		JOINT Spine
		{
			OFFSET 0.028270 2.035590 -0.193380
			CHANNELS 3 Zrotation Yrotation Xrotation
			JOINT Spine1
			{
				OFFSET 0.056720 2.048850 -0.042750
				CHANNELS 3 Zrotation Yrotation Xrotation
				JOINT Neck
				{
					OFFSET 0.000000 0.000000 0.000000
					CHANNELS 3 Zrotation Yrotation Xrotation
					JOINT Neck1
					{
						OFFSET -0.054170 1.746240 0.172020
						CHANNELS 3 Zrotation Yrotation Xrotation
						JOINT Head
						{
							OFFSET 0.104070 1.761360 -0.123970
							CHANNELS 3 Zrotation Yrotation Xrotation
							End Site
							{
								OFFSET 0.000000 0.000000 0.000000
							}
						}
					}
				}
				JOINT LeftShoulder
				{
					OFFSET 0.000000 0.000000 0.000000
					CHANNELS 3 Zrotation Yrotation Xrotation
					JOINT LeftArm
					{
						OFFSET 3.362410 1.200890 -0.311210
						CHANNELS 3 Zrotation Yrotation Xrotation
						JOINT LeftForeArm
						{
							OFFSET 4.983000 -0.000000 -0.000000
							CHANNELS 3 Zrotation Yrotation Xrotation
							JOINT LeftHand
							{
								OFFSET 3.483560 -0.000000 -0.000000
								CHANNELS 3 Zrotation Yrotation Xrotation
								JOINT LeftFingerBase
								{
									OFFSET 0.000000 0.000000 0.000000
									CHANNELS 3 Zrotation Yrotation Xrotation
									JOINT LeftHandIndex1
									{
										OFFSET 0.715260 -0.000000 -0.000000
										CHANNELS 3 Zrotation Yrotation Xrotation
										End Site
										{
											OFFSET 0.000000 0.000000 0.000000
										}
									}
								}
								JOINT LThumb
								{
									OFFSET 0.000000 0.000000 0.000000
									CHANNELS 3 Zrotation Yrotation Xrotation
									End Site
									{
										OFFSET 0.000000 0.000000 0.000000
									}
								}
							}
						}
					}
				}
				JOINT RightShoulder
				{
					OFFSET 0.000000 0.000000 0.000000
					CHANNELS 3 Zrotation Yrotation Xrotation
					JOINT RightArm
					{
						OFFSET -3.136600 1.374050 -0.404650
						CHANNELS 3 Zrotation Yrotation Xrotation
						JOINT RightForeArm
						{
							OFFSET -5.241900 -0.000000 -0.000000
							CHANNELS 3 Zrotation Yrotation Xrotation
							JOINT RightHand
							{
								OFFSET -3.444170 -0.000000 -0.000000
								CHANNELS 3 Zrotation Yrotation Xrotation
								JOINT RightFingerBase
								{
									OFFSET 0.000000 0.000000 0.000000
									CHANNELS 3 Zrotation Yrotation Xrotation
									JOINT RightHandIndex1
									{
										OFFSET -0.622530 -0.000000 -0.000000
										CHANNELS 3 Zrotation Yrotation Xrotation
										End Site
										{
											OFFSET 0.000000 0.000000 0.000000
										}
									}
								}
								JOINT RThumb
								{
									OFFSET 0.000000 0.000000 0.000000
									CHANNELS 3 Zrotation Yrotation Xrotation
									End Site
									{
										OFFSET 0.000000 0.000000 0.000000
									}
								}
							}
						}
					}
				}
			}
		}
	}
}
MOTION
Frames: 8
Frame Time: 0.008333
0.491279 17.253264 -2.547305 157.686900 -82.885496 -144.427965 -10.996735 0.621818 3.443261 -1.627307 -4.815242 -29.557012 0.428432 1.136600 35.714181 4.355503 27.577713 3.515325 6.237399 0.000000 -44.392000 7.894428 -1.347946 3.692288 11.331771 8.476869 -18.609398 1.915824 0.378921 14.412419 -2.644122 -10.146728 -10.303785 -0.207600 0.000000 -38.392000 0.011308 -3.051248 -7.825641 -0.386763 -3.376049 -3.891822 -5.773079 -3.487185 2.428124 9.964175 -13.362039 -10.669690 -2.897953 -0.202449 -0.720879 0.000000 0.000000 0.000000 -1.286212 12.502232 1.250371 -76.558099 13.364013 -1.583230 -3.686287 -20.914798 0.001029 0.215202 -0.220129 -0.000236 -0.096101 -0.034928 -0.000000 0.000000 0.000000 0.000000 0.000000 0.000000 0.000000 14.951500 -10.909251 0.918611 74.063478 -1.496628 -18.143303 4.388859 8.123259 0.011987 2.380252 4.166418 0.084216 0.114504 -0.068515 -0.000000 0.000000 0.000000 0.000000 0.000000 0.000000 0.000000 
0.518895 17.257757 -2.567631 154.547587 -82.662490 -141.643379 -10.956860 0.471797 3.408682 -1.974288 -5.753931 -30.941215 0.586593 1.340070 39.292791 4.324039 27.764059 5.717185 7.227000 -0.000000 -45.698599 8.035996 -1.299276 3.521548 10.841234 8.212120 -18.533343 1.839441 0.268232 15.029230 -2.614990 -9.991633 -10.446602 -0.160900 0.000000 -38.744400 -0.254098 -3.142464 -7.593402 -0.419765 -3.431535 -3.849235 -5.694883 -3.546133 2.383642 9.769782 -13.290389 -10.620916 -2.877782 -0.200870 -0.709729 0.000000 0.000000 0.000000 -1.143039 12.309619 1.290579 -77.096470 13.688087 -1.279425 -3.676605 -20.873221 0.000765 0.107538 -0.114505 0.000154 -0.094764 -0.035905 -0.000000 0.000000 0.000000 0.000000 0.000000 0.000000 0.000000 14.691696 -10.878721 0.921255 74.002491 -1.582211 -17.567376 4.395923 8.265381 0.012024 2.380399 4.157890 0.084015 0.115851 -0.067542 -0.000000 0.000000 0.000000 0.000000 0.000000 0.000000 0.000000 
0.548598 17.262691 -2.586696 151.643629 -82.394793 -139.131181 -10.911067 0.316916 3.353167 -2.371401 -6.618638 -32.336960 0.743673 1.535929 42.912208 4.261323 27.708852 8.295134 8.276400 0.000000 -47.302500 8.198028 -1.238449 3.339642 10.317112 7.930851 -18.405573 1.761195 0.157918 15.629044 -2.579428 -9.820819 -10.570461 -0.118200 0.000001 -39.136501 -0.525467 -3.217966 -7.325210 -0.456532 -3.469767 -3.801863 -5.617226 -3.587436 2.331501 9.565674 -13.202999 -10.559762 -2.858270 -0.199450 -0.695747 0.000000 0.000000 0.000000 -0.992210 12.093420 1.329672 -77.616635 13.996894 -0.932072 -3.667604 -20.861249 0.000472 -0.030124 -0.001493 0.000244 -0.093325 -0.036993 -0.000000 0.000000 0.000000 0.000000 0.000000 0.000000 0.000000 14.419996 -10.824806 0.925870 73.934200 -1.628729 -16.942336 4.400522 8.415781 0.012132 2.378392 4.181755 0.084315 0.117151 -0.066775 -0.000000 0.000000 0.000000 0.000000 0.000000 0.000000 0.000000 
0.579875 17.268078 -2.604675 148.969484 -82.088313 -136.875043 -10.859144 0.157097 3.278409 -2.826035 -7.395294 -33.749887 0.892269 1.722772 46.550719 4.173988 27.373535 11.113082 9.269500 -0.000000 -48.646400 8.376987 -1.167769 3.152990 9.761168 7.638522 -18.238249 1.681339 0.049645 16.206891 -2.539019 -9.639613 -10.673925 -0.080100 0.000000 -39.564700 -0.807474 -3.277423 -7.031565 -0.498138 -3.490562 -3.751540 -5.541404 -3.610916 2.272866 9.356973 -13.100474 -10.485205 -2.840296 -0.198303 -0.678541 0.000000 0.000000 0.000000 -0.828178 11.854295 1.366200 -78.116231 14.291897 -0.545973 -3.659668 -20.878640 0.000164 -0.193808 0.109702 0.000135 -0.091809 -0.038197 -0.000000 0.000000 0.000000 0.000000 0.000000 0.000000 0.000000 14.145275 -10.748394 0.931881 73.857275 -1.643615 -16.281867 4.402624 8.572837 0.012298 2.374906 4.231852 0.085115 0.118376 -0.066174 -0.000000 0.000000 0.000000 0.000000 0.000000 0.000000 0.000000 
0.612426 17.273925 -2.621804 146.485185 -81.753285 -134.825229 -10.799940 -0.007970 3.187990 -3.342110 -8.081486 -35.191087 1.028081 1.901115 50.186222 4.070659 26.751162 14.026960 10.101500 0.000001 -49.431699 8.570125 -1.089767 2.968624 9.175046 7.340580 -18.048559 1.599698 -0.055398 16.759687 -2.496121 -9.456560 -10.756386 -0.047500 0.000000 -40.013900 -1.104181 -3.322252 -6.725652 -0.545393 -3.495625 -3.700848 -5.468731 -3.618336 2.207639 9.148185 -12.977952 -10.394840 -2.825093 -0.197594 -0.657305 0.000000 0.000000 0.000000 -0.644784 11.589467 1.399454 -78.594072 14.578774 -0.135922 -3.653098 -20.927847 -0.000146 -0.376649 0.212895 -0.000375 -0.090250 -0.039504 -0.000000 0.000000 0.000000 0.000000 0.000000 0.000000 0.000000 13.875582 -10.645157 0.938632 73.772969 -1.638557 -15.623946 4.402280 8.732093 0.012511 2.373686 4.303372 0.086417 0.119472 -0.065749 -0.000000 0.000000 0.000000 0.000000 0.000000 0.000000 0.000000 
0.645813 17.280125 -2.638339 144.162102 -81.398644 -132.937862 -10.731549 -0.180131 3.085928 -3.919053 -8.680245 -36.677979 1.150681 2.071896 53.795341 3.964952 25.905875 16.933140 10.731900 -0.000001 -49.872200 8.775054 -1.006524 2.792714 8.562067 7.043109 -17.859643 1.516065 -0.156753 17.293392 -2.453121 -9.279357 -10.821008 -0.020000 0.000000 -40.516900 -1.419777 -3.353599 -6.419488 -0.598808 -3.486258 -3.650325 -5.398969 -3.610991 2.143376 8.948559 -12.863431 -10.297195 -2.811484 -0.197131 -0.634237 0.000000 0.000000 0.000000 -0.432088 11.313603 1.426495 -79.050371 14.839157 0.290709 -3.648476 -20.991622 -0.000429 -0.566347 0.295955 -0.001183 -0.088748 -0.040842 -0.000000 0.000000 0.000000 0.000000 0.000000 0.000000 0.000000 13.624267 -10.545625 0.944673 73.670988 -1.596359 -14.873728 4.398633 8.900845 0.012731 2.351783 4.387055 0.087220 0.120587 -0.065264 -0.000000 0.000000 0.000000 0.000000 0.000000 0.000000 0.000000 
0.679812 17.286586 -2.654533 141.940223 -81.038861 -131.143589 -10.652698 -0.356949 2.975213 -4.555101 -9.195421 -38.233184 1.262318 2.241627 57.381040 3.859141 24.855049 19.619633 11.081400 0.000000 -49.513900 8.990253 -0.920639 2.632544 7.926793 6.752778 -17.688794 1.429722 -0.253716 17.807711 -2.413476 -9.122677 -10.867304 0.001900 0.000000 -41.036900 -1.754115 -3.374728 -6.126203 -0.658310 -3.466347 -3.603797 -5.333938 -3.592960 2.074823 8.757640 -12.726901 -10.183644 -2.801817 -0.197245 -0.606832 0.000000 0.000000 0.000000 -0.184955 11.013705 1.449602 -79.487409 15.093147 0.702250 -3.645727 -21.081603 -0.000689 -0.753335 0.362813 -0.002191 -0.087338 -0.042183 -0.000000 0.000000 0.000000 0.000000 0.000000 0.000000 0.000000 13.391128 -10.419477 0.950064 73.563900 -1.550814 -14.158557 4.392142 9.071456 0.012966 2.327733 4.480323 0.088024 0.121557 -0.064892 -0.000000 0.000000 0.000000 0.000000 0.000000 0.000000 0.000000 
0.714063 17.293122 -2.670576 139.788375 -80.684880 -129.397135 -10.562294 -0.538375 2.859129 -5.242425 -9.637438 -39.881429 1.370596 2.415150 60.943134 3.759372 23.687665 21.964937 11.165900 0.000000 -48.518100 9.213962 -0.833483 2.492915 7.275349 6.476844 -17.555584 1.340295 -0.346093 18.310497 -2.380155 -8.997834 -10.900035 0.019000 -0.000001 -41.575600 -2.107064 -3.387833 -5.855079 -0.723347 -3.438410 -3.561515 -5.272860 -3.566822 2.008624 8.581284 -12.588276 -10.062615 -2.794476 -0.197695 -0.577308 0.000000 0.000000 0.000000 0.105452 10.706893 1.467539 -79.906606 15.320613 1.090064 -3.645266 -21.179724 -0.000910 -0.924435 0.409866 -0.003097 -0.086139 -0.043429 -0.000000 0.000000 0.000000 0.000000 0.000000 0.000000 0.000000 13.181769 -10.288939 0.953617 73.448550 -1.486428 -13.426387 4.382178 9.241976 0.013198 2.284649 4.581092 0.088127 0.122493 -0.064522 -0.000000 0.000000 0.000000 0.000000 0.000000 0.000000 0.000000 
